<svg xmlns="http://www.w3.org/2000/svg" version="1.1" width="1280" height="720" viewBox="0 0 1280 720"><defs><marker id="marrow1" viewBox="0 0 10 10" refX="10" refY="5" markerWidth="2.5" markerHeight="2.5" orient="auto" markerUnits="strokeWidth"><path d="M 0 0 L 10 5 L 0 10 z" fill="#28B8C7" /></marker></defs><rect x="0" y="0" width="1280" height="720" fill="#F5F1E8" />
<g id="shape-2" data-pptx-object="shape" data-pptx-frame="53.76 40.32 108.48 32.64" data-pptx-prst="roundRect" data-pptx-source-ref="slide:2">

<path d="M 53.76 45.76 A 5.44 5.44 0 0 1 59.2 40.32 L 156.8 40.32 A 5.44 5.44 0 0 1 162.24 45.76 L 162.24 67.52 A 5.44 5.44 0 0 1 156.8 72.96 L 59.2 72.96 A 5.44 5.44 0 0 1 53.76 67.52 Z" fill="#28B8C7" stroke-width="1.33333" stroke="#28B8C7" stroke-opacity="0" />


</g>
<g id="shape-3" data-pptx-object="shape" data-pptx-frame="61.44 42.24 93.12 28.8" data-pptx-prst="rect" data-pptx-source-ref="slide:3">

<path d="M 61.44 42.24 L 154.56 42.24 L 154.56 71.04 L 61.44 71.04 Z" fill="none" />


<text x="108" y="60.81" text-anchor="middle" xml:space="preserve" font-family="&quot;Noto Sans TC&quot;, sans-serif" font-size="16.67" fill="#FFFFFF" font-weight="bold"><tspan fill="#FFFFFF" font-family="&quot;Noto Sans TC&quot;, sans-serif" font-size="16.67" font-weight="bold">STAGE 6</tspan></text>
</g>
<g id="shape-4" data-pptx-object="shape" data-pptx-frame="1106.88 40.32 120 32.64" data-pptx-prst="roundRect" data-pptx-source-ref="slide:4">

<path d="M 1106.88 45.76 A 5.44 5.44 0 0 1 1112.32 40.32 L 1221.44 40.32 A 5.44 5.44 0 0 1 1226.88 45.76 L 1226.88 67.52 A 5.44 5.44 0 0 1 1221.44 72.96 L 1112.32 72.96 A 5.44 5.44 0 0 1 1106.88 67.52 Z" fill="#FFFFFF" stroke-width="1.33333" stroke="#FFFFFF" stroke-opacity="0" />


</g>
<g id="shape-5" data-pptx-object="shape" data-pptx-frame="1114.56 42.24 104.64 28.8" data-pptx-prst="rect" data-pptx-source-ref="slide:5">

<path d="M 1114.56 42.24 L 1219.2 42.24 L 1219.2 71.04 L 1114.56 71.04 Z" fill="none" />


<text x="1166.88" y="60.97" text-anchor="middle" xml:space="preserve" font-family="&quot;Noto Sans TC&quot;, sans-serif" font-size="17.33" fill="#17223B" font-weight="bold"><tspan fill="#17223B" font-family="&quot;Noto Sans TC&quot;, sans-serif" font-size="17.33" font-weight="bold">102–114</tspan></text>
</g>
<g id="shape-6" data-pptx-object="shape" data-pptx-frame="178.56 32.64 844.8 46.08" data-pptx-prst="rect" data-pptx-source-ref="slide:6">

<path d="M 178.56 32.64 L 1023.36 32.64 L 1023.36 78.72 L 178.56 78.72 Z" fill="none" />


<text x="178.56" y="64.68" text-anchor="start" xml:space="preserve" font-family="&quot;Noto Sans TC&quot;, sans-serif" font-size="36" fill="#17223B" font-weight="bold"><tspan fill="#17223B" font-family="&quot;Noto Sans TC&quot;, sans-serif" font-size="36" font-weight="bold">競賽轉移｜從機制到可否證構想</tspan></text>
</g>
<g id="shape-7" data-pptx-object="shape" data-pptx-frame="55.68 103.68 96 21.12" data-pptx-prst="rect" data-pptx-source-ref="slide:7">

<path d="M 55.68 103.68 L 151.68 103.68 L 151.68 124.8 L 55.68 124.8 Z" fill="none" />


<text x="55.68" y="118.41" text-anchor="start" xml:space="preserve" font-family="&quot;Noto Sans TC&quot;, sans-serif" font-size="16.67" fill="#28B8C7" font-weight="bold" letter-spacing="1.6"><tspan fill="#28B8C7" font-family="&quot;Noto Sans TC&quot;, sans-serif" font-size="16.67" font-weight="bold" letter-spacing="1.6">核心問題</tspan></text>
</g>
<g id="shape-8" data-pptx-object="shape" data-pptx-frame="155.52 90.24 1051.2 55.68" data-pptx-prst="rect" data-pptx-source-ref="slide:8">

<path d="M 155.52 90.24 L 1206.72 90.24 L 1206.72 145.92 L 155.52 145.92 Z" fill="none" />


<text x="155.52" y="125.75" text-anchor="start" xml:space="preserve" font-family="&quot;Noto Sans TC&quot;, sans-serif" font-size="30.67" fill="#17223B" font-weight="bold"><tspan fill="#17223B" font-family="&quot;Noto Sans TC&quot;, sans-serif" font-size="30.67" font-weight="bold">哪一個課中機制，可以變成智慧節能或 IoT 的競賽方向？</tspan></text>
</g>
<g id="shape-9" data-pptx-object="shape" data-pptx-frame="53.76 146.88 837.12 26.88" data-pptx-prst="roundRect" data-pptx-source-ref="slide:9">

<path d="M 53.76 151.36 A 4.48 4.48 0 0 1 58.24 146.88 L 886.4 146.88 A 4.48 4.48 0 0 1 890.88 151.36 L 890.88 169.28 A 4.48 4.48 0 0 1 886.4 173.76 L 58.24 173.76 A 4.48 4.48 0 0 1 53.76 169.28 Z" fill="#EBE6DC" stroke-width="1.33333" stroke="#EBE6DC" stroke-opacity="0" />


</g>
<g id="shape-10" data-pptx-object="shape" data-pptx-frame="67.2 150.24 808.32 17.28" data-pptx-prst="rect" data-pptx-source-ref="slide:10">

<path d="M 67.2 150.24 L 875.52 150.24 L 875.52 167.52 L 67.2 167.52 Z" fill="none" />


<text x="67.2" y="162.45" text-anchor="start" xml:space="preserve" font-family="&quot;Noto Sans TC&quot;, sans-serif" font-size="14.27" fill="#60708A" font-weight="bold" letter-spacing="0.47"><tspan fill="#60708A" font-family="&quot;Noto Sans TC&quot;, sans-serif" font-size="14.27" font-weight="bold" letter-spacing="0.47">QUESTION  →  LEARNER ACTION  →  OBSERVABLE RESULT  →  MEANING  →  RECOVERY / STATUS</tspan></text>
</g>
<g id="shape-11" data-pptx-object="shape" data-pptx-frame="67.2 206.4 216 86.4" data-pptx-prst="roundRect" data-pptx-source-ref="slide:11">

<path d="M 67.2 220.8 A 14.4 14.4 0 0 1 81.6 206.4 L 268.8 206.4 A 14.4 14.4 0 0 1 283.2 220.8 L 283.2 278.4 A 14.4 14.4 0 0 1 268.8 292.8 L 81.6 292.8 A 14.4 14.4 0 0 1 67.2 278.4 Z" fill="#FFFDF7" stroke-width="1.33333" stroke="#F4B942" />


</g>
<g id="shape-12" data-pptx-object="shape" data-pptx-frame="83.52 232.32 52.8 28.8" data-pptx-prst="roundRect" data-pptx-source-ref="slide:12">

<path d="M 83.52 237.12 A 4.8 4.8 0 0 1 88.32 232.32 L 131.52 232.32 A 4.8 4.8 0 0 1 136.32 237.12 L 136.32 256.32 A 4.8 4.8 0 0 1 131.52 261.12 L 88.32 261.12 A 4.8 4.8 0 0 1 83.52 256.32 Z" fill="#F4B942" stroke-width="1.33333" stroke="#F4B942" stroke-opacity="0" />


</g>
<g id="shape-13" data-pptx-object="shape" data-pptx-frame="91.2 234.24 37.44 24.96" data-pptx-prst="rect" data-pptx-source-ref="slide:13">

<path d="M 91.2 234.24 L 128.64 234.24 L 128.64 259.2 L 91.2 259.2 Z" fill="none" />


<text x="109.92" y="250.39" text-anchor="middle" xml:space="preserve" font-family="&quot;Noto Sans TC&quot;, sans-serif" font-size="14.67" fill="#FFFFFF" font-weight="bold"><tspan fill="#FFFFFF" font-family="&quot;Noto Sans TC&quot;, sans-serif" font-size="14.67" font-weight="bold">E1</tspan></text>
</g>
<g id="shape-14" data-pptx-object="shape" data-pptx-frame="150.72 222.72 113.28 40.32" data-pptx-prst="rect" data-pptx-source-ref="slide:14">

<path d="M 150.72 222.72 L 264 222.72 L 264 263.04 L 150.72 263.04 Z" fill="none" />


<text x="207.36" y="247.71" text-anchor="middle" xml:space="preserve" font-family="&quot;Noto Sans TC&quot;, sans-serif" font-size="19.33" fill="#17223B" font-weight="bold"><tspan fill="#17223B" font-family="&quot;Noto Sans TC&quot;, sans-serif" font-size="19.33" font-weight="bold">功率／時間</tspan></text>
</g>
<g id="shape-15" data-pptx-object="shape" data-pptx-frame="307.2 206.4 216 86.4" data-pptx-prst="roundRect" data-pptx-source-ref="slide:15">

<path d="M 307.2 220.8 A 14.4 14.4 0 0 1 321.6 206.4 L 508.8 206.4 A 14.4 14.4 0 0 1 523.2 220.8 L 523.2 278.4 A 14.4 14.4 0 0 1 508.8 292.8 L 321.6 292.8 A 14.4 14.4 0 0 1 307.2 278.4 Z" fill="#FFFDF7" stroke-width="1.33333" stroke="#EA6A5A" />


</g>
<g id="shape-16" data-pptx-object="shape" data-pptx-frame="323.52 232.32 52.8 28.8" data-pptx-prst="roundRect" data-pptx-source-ref="slide:16">

<path d="M 323.52 237.12 A 4.8 4.8 0 0 1 328.32 232.32 L 371.52 232.32 A 4.8 4.8 0 0 1 376.32 237.12 L 376.32 256.32 A 4.8 4.8 0 0 1 371.52 261.12 L 328.32 261.12 A 4.8 4.8 0 0 1 323.52 256.32 Z" fill="#EA6A5A" stroke-width="1.33333" stroke="#EA6A5A" stroke-opacity="0" />


</g>
<g id="shape-17" data-pptx-object="shape" data-pptx-frame="331.2 234.24 37.44 24.96" data-pptx-prst="rect" data-pptx-source-ref="slide:17">

<path d="M 331.2 234.24 L 368.64 234.24 L 368.64 259.2 L 331.2 259.2 Z" fill="none" />


<text x="349.92" y="250.39" text-anchor="middle" xml:space="preserve" font-family="&quot;Noto Sans TC&quot;, sans-serif" font-size="14.67" fill="#FFFFFF" font-weight="bold"><tspan fill="#FFFFFF" font-family="&quot;Noto Sans TC&quot;, sans-serif" font-size="14.67" font-weight="bold">E2</tspan></text>
</g>
<g id="shape-18" data-pptx-object="shape" data-pptx-frame="390.72 222.72 113.28 40.32" data-pptx-prst="rect" data-pptx-source-ref="slide:18">

<path d="M 390.72 222.72 L 504 222.72 L 504 263.04 L 390.72 263.04 Z" fill="none" />


<text x="447.36" y="247.71" text-anchor="middle" xml:space="preserve" font-family="&quot;Noto Sans TC&quot;, sans-serif" font-size="19.33" fill="#17223B" font-weight="bold"><tspan fill="#17223B" font-family="&quot;Noto Sans TC&quot;, sans-serif" font-size="19.33" font-weight="bold">狀態趨勢／切換時機</tspan></text>
</g>
<g id="shape-19" data-pptx-object="shape" data-pptx-frame="547.2 206.4 216 86.4" data-pptx-prst="roundRect" data-pptx-source-ref="slide:19">

<path d="M 547.2 220.8 A 14.4 14.4 0 0 1 561.6 206.4 L 748.8 206.4 A 14.4 14.4 0 0 1 763.2 220.8 L 763.2 278.4 A 14.4 14.4 0 0 1 748.8 292.8 L 561.6 292.8 A 14.4 14.4 0 0 1 547.2 278.4 Z" fill="#FFFDF7" stroke-width="1.33333" stroke="#4EA978" />


</g>
<g id="shape-20" data-pptx-object="shape" data-pptx-frame="563.52 232.32 52.8 28.8" data-pptx-prst="roundRect" data-pptx-source-ref="slide:20">

<path d="M 563.52 237.12 A 4.8 4.8 0 0 1 568.32 232.32 L 611.52 232.32 A 4.8 4.8 0 0 1 616.32 237.12 L 616.32 256.32 A 4.8 4.8 0 0 1 611.52 261.12 L 568.32 261.12 A 4.8 4.8 0 0 1 563.52 256.32 Z" fill="#4EA978" stroke-width="1.33333" stroke="#4EA978" stroke-opacity="0" />


</g>
<g id="shape-21" data-pptx-object="shape" data-pptx-frame="571.2 234.24 37.44 24.96" data-pptx-prst="rect" data-pptx-source-ref="slide:21">

<path d="M 571.2 234.24 L 608.64 234.24 L 608.64 259.2 L 571.2 259.2 Z" fill="none" />


<text x="589.92" y="250.39" text-anchor="middle" xml:space="preserve" font-family="&quot;Noto Sans TC&quot;, sans-serif" font-size="14.67" fill="#FFFFFF" font-weight="bold"><tspan fill="#FFFFFF" font-family="&quot;Noto Sans TC&quot;, sans-serif" font-size="14.67" font-weight="bold">IoT</tspan></text>
</g>
<g id="shape-22" data-pptx-object="shape" data-pptx-frame="630.72 222.72 113.28 40.32" data-pptx-prst="rect" data-pptx-source-ref="slide:22">

<path d="M 630.72 222.72 L 744 222.72 L 744 263.04 L 630.72 263.04 Z" fill="none" />


<text x="687.36" y="247.71" text-anchor="middle" xml:space="preserve" font-family="&quot;Noto Sans TC&quot;, sans-serif" font-size="19.33" fill="#17223B" font-weight="bold"><tspan fill="#17223B" font-family="&quot;Noto Sans TC&quot;, sans-serif" font-size="19.33" font-weight="bold">優先／批次／新鮮度</tspan></text>
</g>
<g id="shape-23" data-pptx-object="shape" data-pptx-frame="792 250.56 72 0" data-pptx-prst="line" data-pptx-source-ref="slide:23">

<path d="M 792 250.56 L 864 250.56" fill="none" stroke-width="2.8" stroke="#28B8C7" marker-end="url(#marrow1)" />


</g>
<g id="shape-24" data-pptx-object="shape" data-pptx-frame="883.2 196.8 334.08 105.6" data-pptx-prst="roundRect" data-pptx-source-ref="slide:24">

<path d="M 883.2 214.4 A 17.6 17.6 0 0 1 900.8 196.8 L 1199.68 196.8 A 17.6 17.6 0 0 1 1217.28 214.4 L 1217.28 284.8 A 17.6 17.6 0 0 1 1199.68 302.4 L 900.8 302.4 A 17.6 17.6 0 0 1 883.2 284.8 Z" fill="#14213D" stroke-width="1.33333" stroke="#14213D" />


</g>
<g id="shape-25" data-pptx-object="shape" data-pptx-frame="913.92 218.88 272.64 33.6" data-pptx-prst="rect" data-pptx-source-ref="slide:25">

<path d="M 913.92 218.88 L 1186.56 218.88 L 1186.56 252.48 L 913.92 252.48 Z" fill="none" />


<text x="1050.24" y="242.35" text-anchor="middle" xml:space="preserve" font-family="&quot;Noto Sans TC&quot;, sans-serif" font-size="26.67" fill="#FFFFFF" font-weight="bold"><tspan fill="#FFFFFF" font-family="&quot;Noto Sans TC&quot;, sans-serif" font-size="26.67" font-weight="bold">一張可否證的構想卡</tspan></text>
</g>
<g id="shape-26" data-pptx-object="shape" data-pptx-frame="918.72 261.12 263.04 21.12" data-pptx-prst="rect" data-pptx-source-ref="slide:26">

<path d="M 918.72 261.12 L 1181.76 261.12 L 1181.76 282.24 L 918.72 282.24 Z" fill="none" />


<text x="1050.24" y="275.85" text-anchor="middle" xml:space="preserve" font-family="&quot;Noto Sans TC&quot;, sans-serif" font-size="16.67" fill="#BCE9EA" font-weight="bold"><tspan fill="#BCE9EA" font-family="&quot;Noto Sans TC&quot;, sans-serif" font-size="16.67" font-weight="bold">不是「加上 AI」四個字</tspan></text>
</g>
<g id="shape-27" data-pptx-object="shape" data-pptx-frame="67.2 331.2 554.88 80.64" data-pptx-prst="roundRect" data-pptx-source-ref="slide:27">

<path d="M 67.2 344.64 A 13.44 13.44 0 0 1 80.64 331.2 L 608.64 331.2 A 13.44 13.44 0 0 1 622.08 344.64 L 622.08 398.4 A 13.44 13.44 0 0 1 608.64 411.84 L 80.64 411.84 A 13.44 13.44 0 0 1 67.2 398.4 Z" fill="#FFFDF7" stroke-width="1.33333" stroke="#28B8C7" />


</g>
<g id="shape-28" data-pptx-object="shape" data-pptx-frame="88.32 346.56 46.08 46.08" data-pptx-prst="ellipse" data-pptx-source-ref="slide:28">

<path d="M 88.32 369.6 A 23.04 23.04 0 0 1 111.36 346.56 A 23.04 23.04 0 0 1 134.4 369.6 A 23.04 23.04 0 0 1 111.36 392.64 A 23.04 23.04 0 0 1 88.32 369.6 Z" fill="#28B8C7" stroke-width="1.33333" stroke="#28B8C7" stroke-opacity="0" />


</g>
<g id="shape-29" data-pptx-object="shape" data-pptx-frame="93.12 356.16 36.48 19.2" data-pptx-prst="rect" data-pptx-source-ref="slide:29">

<path d="M 93.12 356.16 L 129.6 356.16 L 129.6 375.36 L 93.12 375.36 Z" fill="none" />


<text x="111.36" y="369.59" text-anchor="middle" xml:space="preserve" font-family="&quot;Noto Sans TC&quot;, sans-serif" font-size="15.33" fill="#FFFFFF" font-weight="bold"><tspan fill="#FFFFFF" font-family="&quot;Noto Sans TC&quot;, sans-serif" font-size="15.33" font-weight="bold">01</tspan></text>
</g>
<g id="shape-30" data-pptx-object="shape" data-pptx-frame="151.68 344.64 216 27.84" data-pptx-prst="rect" data-pptx-source-ref="slide:30">

<path d="M 151.68 344.64 L 367.68 344.64 L 367.68 372.48 L 151.68 372.48 Z" fill="none" />


<text x="151.68" y="363.89" text-anchor="start" xml:space="preserve" font-family="&quot;Noto Sans TC&quot;, sans-serif" font-size="21.33" fill="#17223B" font-weight="bold"><tspan fill="#17223B" font-family="&quot;Noto Sans TC&quot;, sans-serif" font-size="21.33" font-weight="bold">資料 ＋ 預測</tspan></text>
</g>
<g id="shape-31" data-pptx-object="shape" data-pptx-frame="360 341.76 230.4 36.48" data-pptx-prst="rect" data-pptx-source-ref="slide:31">

<path d="M 360 341.76 L 590.4 341.76 L 590.4 378.24 L 360 378.24 Z" fill="none" />


<text x="590.4" y="364.5" text-anchor="end" xml:space="preserve" font-family="&quot;Noto Sans TC&quot;, sans-serif" font-size="18" fill="#60708A" font-weight="bold"><tspan fill="#60708A" font-family="&quot;Noto Sans TC&quot;, sans-serif" font-size="18" font-weight="bold">感測什麼？要分析或預測哪個狀態？</tspan></text>
</g>
<g id="shape-32" data-pptx-object="shape" data-pptx-frame="650.88 331.2 554.88 80.64" data-pptx-prst="roundRect" data-pptx-source-ref="slide:32">

<path d="M 650.88 344.64 A 13.44 13.44 0 0 1 664.32 331.2 L 1192.32 331.2 A 13.44 13.44 0 0 1 1205.76 344.64 L 1205.76 398.4 A 13.44 13.44 0 0 1 1192.32 411.84 L 664.32 411.84 A 13.44 13.44 0 0 1 650.88 398.4 Z" fill="#FFFDF7" stroke-width="1.33333" stroke="#EA6A5A" />


</g>
<g id="shape-33" data-pptx-object="shape" data-pptx-frame="672 346.56 46.08 46.08" data-pptx-prst="ellipse" data-pptx-source-ref="slide:33">

<path d="M 672 369.6 A 23.04 23.04 0 0 1 695.04 346.56 A 23.04 23.04 0 0 1 718.08 369.6 A 23.04 23.04 0 0 1 695.04 392.64 A 23.04 23.04 0 0 1 672 369.6 Z" fill="#EA6A5A" stroke-width="1.33333" stroke="#EA6A5A" stroke-opacity="0" />


</g>
<g id="shape-34" data-pptx-object="shape" data-pptx-frame="676.8 356.16 36.48 19.2" data-pptx-prst="rect" data-pptx-source-ref="slide:34">

<path d="M 676.8 356.16 L 713.28 356.16 L 713.28 375.36 L 676.8 375.36 Z" fill="none" />


<text x="695.04" y="369.59" text-anchor="middle" xml:space="preserve" font-family="&quot;Noto Sans TC&quot;, sans-serif" font-size="15.33" fill="#FFFFFF" font-weight="bold"><tspan fill="#FFFFFF" font-family="&quot;Noto Sans TC&quot;, sans-serif" font-size="15.33" font-weight="bold">02</tspan></text>
</g>
<g id="shape-35" data-pptx-object="shape" data-pptx-frame="735.36 344.64 216 27.84" data-pptx-prst="rect" data-pptx-source-ref="slide:35">

<path d="M 735.36 344.64 L 951.36 344.64 L 951.36 372.48 L 735.36 372.48 Z" fill="none" />


<text x="735.36" y="363.89" text-anchor="start" xml:space="preserve" font-family="&quot;Noto Sans TC&quot;, sans-serif" font-size="21.33" fill="#17223B" font-weight="bold"><tspan fill="#17223B" font-family="&quot;Noto Sans TC&quot;, sans-serif" font-size="21.33" font-weight="bold">基準 ＋ 控制</tspan></text>
</g>
<g id="shape-36" data-pptx-object="shape" data-pptx-frame="943.68 341.76 230.4 36.48" data-pptx-prst="rect" data-pptx-source-ref="slide:36">

<path d="M 943.68 341.76 L 1174.08 341.76 L 1174.08 378.24 L 943.68 378.24 Z" fill="none" />


<text x="1174.08" y="364.5" text-anchor="end" xml:space="preserve" font-family="&quot;Noto Sans TC&quot;, sans-serif" font-size="18" fill="#60708A" font-weight="bold"><tspan fill="#60708A" font-family="&quot;Noto Sans TC&quot;, sans-serif" font-size="18" font-weight="bold">原本怎麼做？改變哪個機制？</tspan></text>
</g>
<g id="shape-37" data-pptx-object="shape" data-pptx-frame="67.2 432 554.88 80.64" data-pptx-prst="roundRect" data-pptx-source-ref="slide:37">

<path d="M 67.2 445.44 A 13.44 13.44 0 0 1 80.64 432 L 608.64 432 A 13.44 13.44 0 0 1 622.08 445.44 L 622.08 499.2 A 13.44 13.44 0 0 1 608.64 512.64 L 80.64 512.64 A 13.44 13.44 0 0 1 67.2 499.2 Z" fill="#FFFDF7" stroke-width="1.33333" stroke="#F4B942" />


</g>
<g id="shape-38" data-pptx-object="shape" data-pptx-frame="88.32 447.36 46.08 46.08" data-pptx-prst="ellipse" data-pptx-source-ref="slide:38">

<path d="M 88.32 470.4 A 23.04 23.04 0 0 1 111.36 447.36 A 23.04 23.04 0 0 1 134.4 470.4 A 23.04 23.04 0 0 1 111.36 493.44 A 23.04 23.04 0 0 1 88.32 470.4 Z" fill="#F4B942" stroke-width="1.33333" stroke="#F4B942" stroke-opacity="0" />


</g>
<g id="shape-39" data-pptx-object="shape" data-pptx-frame="93.12 456.96 36.48 19.2" data-pptx-prst="rect" data-pptx-source-ref="slide:39">

<path d="M 93.12 456.96 L 129.6 456.96 L 129.6 476.16 L 93.12 476.16 Z" fill="none" />


<text x="111.36" y="470.39" text-anchor="middle" xml:space="preserve" font-family="&quot;Noto Sans TC&quot;, sans-serif" font-size="15.33" fill="#FFFFFF" font-weight="bold"><tspan fill="#FFFFFF" font-family="&quot;Noto Sans TC&quot;, sans-serif" font-size="15.33" font-weight="bold">03</tspan></text>
</g>
<g id="shape-40" data-pptx-object="shape" data-pptx-frame="151.68 445.44 216 27.84" data-pptx-prst="rect" data-pptx-source-ref="slide:40">

<path d="M 151.68 445.44 L 367.68 445.44 L 367.68 473.28 L 151.68 473.28 Z" fill="none" />


<text x="151.68" y="464.69" text-anchor="start" xml:space="preserve" font-family="&quot;Noto Sans TC&quot;, sans-serif" font-size="21.33" fill="#17223B" font-weight="bold"><tspan fill="#17223B" font-family="&quot;Noto Sans TC&quot;, sans-serif" font-size="21.33" font-weight="bold">功率／時間 ＋ 能源邊界</tspan></text>
</g>
<g id="shape-41" data-pptx-object="shape" data-pptx-frame="360 442.56 230.4 36.48" data-pptx-prst="rect" data-pptx-source-ref="slide:41">

<path d="M 360 442.56 L 590.4 442.56 L 590.4 479.04 L 360 479.04 Z" fill="none" />


<text x="590.4" y="465.3" text-anchor="end" xml:space="preserve" font-family="&quot;Noto Sans TC&quot;, sans-serif" font-size="18" fill="#60708A" font-weight="bold"><tspan fill="#60708A" font-family="&quot;Noto Sans TC&quot;, sans-serif" font-size="18" font-weight="bold">預期如何影響 W、時間或 J？</tspan></text>
</g>
<g id="shape-42" data-pptx-object="shape" data-pptx-frame="650.88 432 554.88 80.64" data-pptx-prst="roundRect" data-pptx-source-ref="slide:42">

<path d="M 650.88 445.44 A 13.44 13.44 0 0 1 664.32 432 L 1192.32 432 A 13.44 13.44 0 0 1 1205.76 445.44 L 1205.76 499.2 A 13.44 13.44 0 0 1 1192.32 512.64 L 664.32 512.64 A 13.44 13.44 0 0 1 650.88 499.2 Z" fill="#FFFDF7" stroke-width="1.33333" stroke="#4EA978" />


</g>
<g id="shape-43" data-pptx-object="shape" data-pptx-frame="672 447.36 46.08 46.08" data-pptx-prst="ellipse" data-pptx-source-ref="slide:43">

<path d="M 672 470.4 A 23.04 23.04 0 0 1 695.04 447.36 A 23.04 23.04 0 0 1 718.08 470.4 A 23.04 23.04 0 0 1 695.04 493.44 A 23.04 23.04 0 0 1 672 470.4 Z" fill="#4EA978" stroke-width="1.33333" stroke="#4EA978" stroke-opacity="0" />


</g>
<g id="shape-44" data-pptx-object="shape" data-pptx-frame="676.8 456.96 36.48 19.2" data-pptx-prst="rect" data-pptx-source-ref="slide:44">

<path d="M 676.8 456.96 L 713.28 456.96 L 713.28 476.16 L 676.8 476.16 Z" fill="none" />


<text x="695.04" y="470.39" text-anchor="middle" xml:space="preserve" font-family="&quot;Noto Sans TC&quot;, sans-serif" font-size="15.33" fill="#FFFFFF" font-weight="bold"><tspan fill="#FFFFFF" font-family="&quot;Noto Sans TC&quot;, sans-serif" font-size="15.33" font-weight="bold">04</tspan></text>
</g>
<g id="shape-45" data-pptx-object="shape" data-pptx-frame="735.36 445.44 216 27.84" data-pptx-prst="rect" data-pptx-source-ref="slide:45">

<path d="M 735.36 445.44 L 951.36 445.44 L 951.36 473.28 L 735.36 473.28 Z" fill="none" />


<text x="735.36" y="464.69" text-anchor="start" xml:space="preserve" font-family="&quot;Noto Sans TC&quot;, sans-serif" font-size="21.33" fill="#17223B" font-weight="bold"><tspan fill="#17223B" font-family="&quot;Noto Sans TC&quot;, sans-serif" font-size="21.33" font-weight="bold">服務限制 ＋ 可推翻證據</tspan></text>
</g>
<g id="shape-46" data-pptx-object="shape" data-pptx-frame="943.68 442.56 230.4 36.48" data-pptx-prst="rect" data-pptx-source-ref="slide:46">

<path d="M 943.68 442.56 L 1174.08 442.56 L 1174.08 479.04 L 943.68 479.04 Z" fill="none" />


<text x="1174.08" y="465.3" text-anchor="end" xml:space="preserve" font-family="&quot;Noto Sans TC&quot;, sans-serif" font-size="18" fill="#60708A" font-weight="bold"><tspan fill="#60708A" font-family="&quot;Noto Sans TC&quot;, sans-serif" font-size="18" font-weight="bold">什麼結果會證明「沒有省」？</tspan></text>
</g>
<g id="shape-47" data-pptx-object="shape" data-pptx-frame="55.68 564.48 715.2 98.88" data-pptx-prst="roundRect" data-pptx-source-ref="slide:47">

<path d="M 55.68 580.96 A 16.48 16.48 0 0 1 72.16 564.48 L 754.4 564.48 A 16.48 16.48 0 0 1 770.88 580.96 L 770.88 646.88 A 16.48 16.48 0 0 1 754.4 663.36 L 72.16 663.36 A 16.48 16.48 0 0 1 55.68 646.88 Z" fill="#FFFDF7" stroke-width="1.33333" stroke="#C9D2D8" />


</g>
<g id="shape-48" data-pptx-object="shape" data-pptx-frame="74.88 578.88 148.8 29.76" data-pptx-prst="roundRect" data-pptx-source-ref="slide:48">

<path d="M 74.88 583.84 A 4.96 4.96 0 0 1 79.84 578.88 L 218.72 578.88 A 4.96 4.96 0 0 1 223.68 583.84 L 223.68 603.68 A 4.96 4.96 0 0 1 218.72 608.64 L 79.84 608.64 A 4.96 4.96 0 0 1 74.88 603.68 Z" fill="#28B8C7" stroke-width="1.33333" stroke="#28B8C7" stroke-opacity="0" />


</g>
<g id="shape-49" data-pptx-object="shape" data-pptx-frame="82.56 580.8 133.44 25.92" data-pptx-prst="rect" data-pptx-source-ref="slide:49">

<path d="M 82.56 580.8 L 216 580.8 L 216 606.72 L 82.56 606.72 Z" fill="none" />


<text x="149.28" y="597.93" text-anchor="middle" xml:space="preserve" font-family="&quot;Noto Sans TC&quot;, sans-serif" font-size="16.67" fill="#FFFFFF" font-weight="bold"><tspan fill="#FFFFFF" font-family="&quot;Noto Sans TC&quot;, sans-serif" font-size="16.67" font-weight="bold">能源／競賽意義</tspan></text>
</g>
<g id="shape-50" data-pptx-object="shape" data-pptx-frame="240 575.04 505.92 63.36" data-pptx-prst="rect" data-pptx-source-ref="slide:50">

<path d="M 240 575.04 L 745.92 575.04 L 745.92 638.4 L 240 638.4 Z" fill="none" />


<text x="240" y="599.02" text-anchor="start" xml:space="preserve" font-family="&quot;Noto Sans TC&quot;, sans-serif" font-size="22" fill="#17223B" font-weight="bold"><tspan fill="#17223B" font-family="&quot;Noto Sans TC&quot;, sans-serif" font-size="22" font-weight="bold">把衛星的「機制與取捨」帶走，不把衛星數值或公</tspan><tspan x="240" dy="26.4" fill="#17223B" font-family="&quot;Noto Sans TC&quot;, sans-serif" font-size="22" font-weight="bold">式硬套到 HVAC、edge AI 或其他 IoT 題目。</tspan></text>
</g>
<g id="shape-51" data-pptx-object="shape" data-pptx-frame="789.12 564.48 434.88 98.88" data-pptx-prst="roundRect" data-pptx-source-ref="slide:51">

<path d="M 789.12 580.96 A 16.48 16.48 0 0 1 805.6 564.48 L 1207.52 564.48 A 16.48 16.48 0 0 1 1224 580.96 L 1224 646.88 A 16.48 16.48 0 0 1 1207.52 663.36 L 805.6 663.36 A 16.48 16.48 0 0 1 789.12 646.88 Z" fill="#FFFDF7" stroke-width="1.33333" stroke="#C9D2D8" />


</g>
<g id="shape-52" data-pptx-object="shape" data-pptx-frame="808.32 578.88 126.72 29.76" data-pptx-prst="roundRect" data-pptx-source-ref="slide:52">

<path d="M 808.32 583.84 A 4.96 4.96 0 0 1 813.28 578.88 L 930.08 578.88 A 4.96 4.96 0 0 1 935.04 583.84 L 935.04 603.68 A 4.96 4.96 0 0 1 930.08 608.64 L 813.28 608.64 A 4.96 4.96 0 0 1 808.32 603.68 Z" fill="#28B8C7" stroke-width="1.33333" stroke="#28B8C7" stroke-opacity="0" />


</g>
<g id="shape-53" data-pptx-object="shape" data-pptx-frame="816 580.8 111.36 25.92" data-pptx-prst="rect" data-pptx-source-ref="slide:53">

<path d="M 816 580.8 L 927.36 580.8 L 927.36 606.72 L 816 606.72 Z" fill="none" />


<text x="871.68" y="597.93" text-anchor="middle" xml:space="preserve" font-family="&quot;Noto Sans TC&quot;, sans-serif" font-size="16.67" fill="#FFFFFF" font-weight="bold"><tspan fill="#FFFFFF" font-family="&quot;Noto Sans TC&quot;, sans-serif" font-size="16.67" font-weight="bold">復原／狀態</tspan></text>
</g>
<g id="shape-54" data-pptx-object="shape" data-pptx-frame="944.64 574.08 257.28 36.48" data-pptx-prst="rect" data-pptx-source-ref="slide:54">

<path d="M 944.64 574.08 L 1201.92 574.08 L 1201.92 610.56 L 944.64 610.56 Z" fill="none" />


<text x="944.64" y="590.51" text-anchor="start" xml:space="preserve" font-family="&quot;Noto Sans TC&quot;, sans-serif" font-size="19.33" fill="#17223B" font-weight="bold"><tspan fill="#17223B" font-family="&quot;Noto Sans TC&quot;, sans-serif" font-size="19.33" font-weight="bold">缺哪一欄，就只問那一欄；不</tspan><tspan x="944.64" dy="23.2" fill="#17223B" font-family="&quot;Noto Sans TC&quot;, sans-serif" font-size="19.33" font-weight="bold">提供罐頭答案。</tspan></text>
</g>
<g id="shape-55" data-pptx-object="shape" data-pptx-frame="944.64 616.32 257.28 24" data-pptx-prst="rect" data-pptx-source-ref="slide:55">

<path d="M 944.64 616.32 L 1201.92 616.32 L 1201.92 640.32 L 944.64 640.32 Z" fill="none" />


<text x="944.64" y="632.15" text-anchor="start" xml:space="preserve" font-family="&quot;Noto Sans TC&quot;, sans-serif" font-size="15.33" fill="#60708A" font-weight="bold"><tspan fill="#60708A" font-family="&quot;Noto Sans TC&quot;, sans-serif" font-size="15.33" font-weight="bold">核心成果已接受｜構想品質仍待學員驗證</tspan></text>
</g>
<g id="shape-56" data-pptx-object="shape" data-pptx-frame="52.8 685.44 748.8 17.28" data-pptx-prst="rect" data-pptx-source-ref="slide:56">

<path d="M 52.8 685.44 L 801.6 685.44 L 801.6 702.72 L 52.8 702.72 Z" fill="none" />


<text x="52.8" y="698.47" text-anchor="start" xml:space="preserve" font-family="&quot;Noto Sans TC&quot;, sans-serif" font-size="15.33" fill="#60708A" font-weight="bold"><tspan fill="#60708A" font-family="&quot;Noto Sans TC&quot;, sans-serif" font-size="15.33" font-weight="bold">PHASE 0｜架構總覽，非完整教學頁</tspan></text>
</g>
<g id="shape-57" data-pptx-object="shape" data-pptx-frame="1171.2 682.56 52.8 19.2" data-pptx-prst="rect" data-pptx-source-ref="slide:57">

<path d="M 1171.2 682.56 L 1224 682.56 L 1224 701.76 L 1171.2 701.76 Z" fill="none" />


<text x="1224" y="696.16" text-anchor="end" xml:space="preserve" font-family="&quot;Noto Sans TC&quot;, sans-serif" font-size="16" fill="#60708A" font-weight="bold"><tspan fill="#60708A" font-family="&quot;Noto Sans TC&quot;, sans-serif" font-size="16" font-weight="bold">07</tspan></text>
</g>
<g id="shape-58" data-pptx-object="shape" data-pptx-frame="820.8 678.72 321.6 24.96" data-pptx-prst="roundRect" data-pptx-source-ref="slide:58">

<path d="M 820.8 682.88 A 4.16 4.16 0 0 1 824.96 678.72 L 1138.24 678.72 A 4.16 4.16 0 0 1 1142.4 682.88 L 1142.4 699.52 A 4.16 4.16 0 0 1 1138.24 703.68 L 824.96 703.68 A 4.16 4.16 0 0 1 820.8 699.52 Z" fill="#E8E3DA" stroke-width="1.33333" stroke="#E8E3DA" stroke-opacity="0" />


</g>
<g id="shape-59" data-pptx-object="shape" data-pptx-frame="833.28 681.12 297.6 16.32" data-pptx-prst="rect" data-pptx-source-ref="slide:59">

<path d="M 833.28 681.12 L 1130.88 681.12 L 1130.88 697.44 L 833.28 697.44 Z" fill="none" />


<text x="982.08" y="693.36" text-anchor="middle" xml:space="preserve" font-family="&quot;Noto Sans TC&quot;, sans-serif" font-size="14.4" fill="#60708A" font-weight="bold"><tspan fill="#60708A" font-family="&quot;Noto Sans TC&quot;, sans-serif" font-size="14.4" font-weight="bold">模擬教學｜非即時｜非量測｜未驗證 parity</tspan></text>
</g></svg>
